<?xml version="1.0" standalone="no"?>
<!DOCTYPE svg PUBLIC "-//W3C//DTD SVG 20010904//EN"
 "http://www.w3.org/TR/2001/REC-SVG-20010904/DTD/svg10.dtd">
<svg version="1.0" xmlns="http://www.w3.org/2000/svg"
 width="300.000000pt" height="300.000000pt" viewBox="0 0 300.000000 300.000000"
 preserveAspectRatio="xMidYMid meet">
<metadata>
Created by potrace 1.14, written by Peter Selinger 2001-2017
</metadata>
<g transform="translate(0.000000,300.000000) scale(0.100000,-0.100000)"
fill="#000000" stroke="none">
<path d="M1375 2979 c-11 -4 -325 -311 -698 -681 -500 -497 -677 -679 -677
-695 0 -25 30 -56 909 -923 304 -300 581 -573 615 -608 56 -55 64 -61 80 -49
15 11 16 18 8 33 -6 10 -108 115 -226 232 l-216 212 41 0 c39 0 46 -6 240
-197 109 -108 204 -200 211 -204 13 -8 38 7 38 22 0 5 -84 93 -187 194 l-187
185 43 0 c41 0 45 -3 199 -158 87 -87 165 -161 174 -164 15 -6 38 8 38 23 0 4
-66 73 -147 153 l-148 146 40 0 c38 0 47 -7 169 -125 70 -69 131 -125 136
-125 4 0 13 7 21 16 11 14 -1 30 -94 121 -59 59 -107 108 -107 110 0 1 17 3
38 3 33 0 45 -8 112 -75 92 -93 107 -102 127 -82 14 14 8 23 -51 84 l-67 68
37 3 c32 3 43 -2 85 -44 31 -31 53 -45 63 -41 24 9 19 39 -11 64 l-26 23 73 0
73 0 226 224 c124 124 324 322 444 440 159 157 217 221 217 238 0 17 -50 73
-179 202 -99 99 -178 183 -176 186 4 6 8 25 20 103 3 17 8 39 10 47 2 8 7 35
10 60 4 24 8 47 10 50 2 3 6 30 10 60 4 30 9 58 11 61 4 7 -497 508 -522 522
-9 5 -37 6 -62 1 -26 -4 -54 -8 -62 -9 -18 -3 -76 -14 -110 -20 -48 -10 -65
-13 -114 -19 -27 -4 -53 -9 -56 -11 -4 -2 -24 14 -45 35 l-39 40 39 40 c59 60
57 79 -16 150 -66 64 -95 74 -127 43 -10 -10 -30 -28 -44 -41 l-25 -23 -49 49
c-55 55 -71 63 -99 51z"/>
</g>
</svg>
